<?xml version="1.0" standalone="no"?>
<!DOCTYPE svg PUBLIC "-//W3C//DTD SVG 20010904//EN"
 "http://www.w3.org/TR/2001/REC-SVG-20010904/DTD/svg10.dtd">
<svg version="1.0" xmlns="http://www.w3.org/2000/svg"
 width="512.000000pt" height="512.000000pt" viewBox="0 0 512.000000 512.000000"
 preserveAspectRatio="xMidYMid meet">

<g transform="translate(0.000000,512.000000) scale(0.100000,-0.100000)"
fill="#e60023" stroke="none">
<path d="M2280 4024 c-135 -29 -250 -106 -295 -199 l-27 -54 63 -137 c35 -76
76 -154 91 -175 l27 -37 -29 -104 c-34 -120 -34 -118 -17 -118 7 0 71 -36 142
-80 177 -110 261 -142 392 -148 131 -6 211 13 351 84 138 71 140 72 135 137
-13 160 -59 339 -115 452 -72 143 -194 275 -311 334 -109 55 -275 74 -407 45z
m226 -205 c57 -53 69 -120 34 -188 -33 -66 -135 -93 -201 -54 -33 20 -69 85
-69 126 0 54 39 118 85 138 38 17 123 4 151 -22z"/>
<path d="M2394 3715 c-4 -9 -2 -21 4 -27 15 -15 44 -1 40 19 -4 23 -36 29 -44
8z"/>
<path d="M16 4008 c-31 -45 -14 -234 33 -359 27 -70 90 -171 142 -224 l38 -40
-11 -68 c-28 -168 58 -347 221 -458 39 -27 51 -42 56 -69 20 -108 131 -222
295 -304 58 -29 115 -55 127 -58 12 -3 30 -23 41 -45 62 -120 220 -196 452
-218 56 -5 93 -16 149 -43 72 -35 78 -37 208 -40 74 -3 139 0 144 5 5 5 -4 40
-21 86 -59 151 -74 236 -74 412 1 171 12 243 58 370 l25 69 -69 73 c-42 43
-83 100 -104 141 -77 153 -223 246 -491 313 -369 92 -742 239 -1027 405 -70
41 -139 74 -152 74 -14 0 -32 -10 -40 -22z"/>
<path d="M4935 3969 c-270 -164 -664 -321 -1038 -414 -282 -71 -424 -160 -502
-315 -22 -43 -62 -99 -106 -145 l-70 -74 25 -69 c45 -125 59 -216 59 -372 0
-163 -19 -272 -72 -405 -17 -42 -31 -81 -31 -87 0 -7 49 -9 143 -7 141 4 144
5 218 41 60 29 91 37 159 43 218 18 380 98 445 218 15 28 32 40 96 66 100 41
211 114 270 178 54 57 73 91 89 155 10 39 20 52 66 84 157 108 241 283 215
450 l-10 67 47 52 c114 126 182 307 182 485 0 126 -40 137 -185 49z"/>
<path d="M1783 3672 c-70 -68 -133 -172 -133 -218 0 -29 25 -54 55 -54 27 0
298 30 301 33 5 5 -140 307 -147 307 -4 0 -39 -30 -76 -68z"/>
<path d="M2022 3042 c-272 -510 -7 -1230 471 -1281 322 -34 592 196 689 587
32 127 31 341 -1 467 -22 86 -64 195 -75 195 -3 0 -29 -14 -57 -31 -217 -128
-479 -144 -696 -43 -32 15 -106 58 -164 95 -58 38 -113 69 -121 69 -8 0 -29
-26 -46 -58z"/>
<path d="M3054 1885 c-25 -39 -147 -131 -217 -164 -105 -50 -177 -64 -307 -58
-172 6 -287 55 -424 179 -53 48 -65 55 -70 41 -3 -10 -28 -105 -56 -211 l-51
-194 82 -148 c45 -82 95 -161 110 -176 38 -36 57 -27 144 70 l69 75 83 -89
c103 -109 142 -136 175 -119 13 6 67 55 121 108 l99 96 72 -77 c61 -66 77 -78
104 -78 37 0 46 12 141 192 35 66 61 127 61 144 0 27 -105 422 -115 432 -2 2
-11 -8 -21 -23z"/>
</g>
</svg>
